<?xml version="1.0" encoding="UTF-8"?>
<svg width="16px" height="21px" viewBox="0 0 16 21" version="1.1" xmlns="http://www.w3.org/2000/svg" xmlns:xlink="http://www.w3.org/1999/xlink">
    <!-- Generator: Sketch 48.2 (47327) - http://www.bohemiancoding.com/sketch -->
    <title>Fill 1</title>
    <desc>Created with Sketch.</desc>
    <defs></defs>
    <g id="Nav" stroke="none" stroke-width="1" fill="none" fill-rule="evenodd">
        <g id="Group" fill="#5A5A5A">
            <g id="Page-1">
                <path d="M1.95866114,2.34089018 C1.99971261,2.62308826 2.09474957,2.83236189 2.18978653,2.92903569 C2.28819759,3.02263605 2.38098515,3.10981011 2.79234335,3.12098627 L4.84519793,3.12098627 L4.84519793,2.70327722 C4.84407324,2.69321868 4.84182384,2.67170457 4.83957445,2.64097012 C4.83057686,2.58229527 4.81539344,2.4945624 4.7861513,2.40235907 C4.72710467,2.21208491 4.62728774,2.04947176 4.49766633,1.96620935 C4.40628464,1.90893152 4.28172436,1.84969787 4.00111227,1.84718323 L1.90102038,1.84718323 C1.91536028,2.00784056 1.93504249,2.17520358 1.95866114,2.34089018 Z M6.70432333,18.301008 L11.3448263,18.301008 L11.3526992,18.301008 C11.3608532,18.301008 11.3771613,18.299611 11.3979682,18.2984934 C11.4421126,18.2962581 11.5115627,18.2923465 11.5984456,18.2834056 C11.7727738,18.2644061 12.0216131,18.2278042 12.28901,18.1562767 C12.8325202,18.0154571 13.4153948,17.7343766 13.7483054,17.2884478 C13.9718391,16.9866914 14.1360449,16.6053049 14.1402625,15.9696607 L14.1402625,13.0222274 L9.16150675,13.0222274 L9.1257976,13.0199922 C9.11792471,13.0199922 9.10442834,13.019154 9.08587082,13.019154 C8.94528361,13.0177569 8.54517238,13.0431827 8.15040347,13.2186484 C7.75338516,13.3991435 7.3580539,13.6838562 7.05691607,14.3306765 C6.85700105,14.7654292 6.70657272,15.3851474 6.70657272,16.2702994 L6.70432333,16.2702994 L6.70432333,18.301008 Z M4.84519793,20.1481481 L4.84519793,4.9675676 L2.79234335,4.9675676 C1.99015268,4.97846436 1.26556615,4.67419335 0.820467013,4.17908939 C0.372556132,3.68845588 0.197665631,3.11483938 0.12034266,2.61414733 C0.00477996546,1.83908051 0.0014058722,1.11821808 0,0.950016844 L0,0.912297298 L0.0120905009,4.30921889e-05 L4.00111227,4.30921889e-05 C4.59298446,-0.0030303523 5.12693472,0.158465185 5.53266944,0.431722341 C5.93981003,0.703023668 6.20580105,1.06094025 6.37141279,1.38700477 C6.70038688,2.04388368 6.69813749,2.59598607 6.70376098,2.67170457 L6.70432333,2.67841026 L6.70432333,11.9210961 C7.68983973,11.2304093 8.68491607,11.1750873 9.08587082,11.1711756 C9.14744803,11.1711756 9.19637238,11.1736902 9.23095684,11.1750873 L15.9999503,11.1750873 L15.9999503,15.9696607 C16.0044491,16.9542805 15.7033112,17.7905368 15.2298135,18.4041081 C14.7594087,19.0196352 14.1537589,19.4080068 13.5871924,19.657794 C12.4498418,20.1503834 11.4246798,20.1431189 11.3518556,20.1481481 L4.84519793,20.1481481 Z" id="Fill-1"></path>
            </g>
        </g>
    </g>
</svg>