<?xml version="1.0" encoding="UTF-8"?>
<svg width="229px" height="22px" viewBox="0 0 229 22" version="1.1" xmlns="http://www.w3.org/2000/svg" xmlns:xlink="http://www.w3.org/1999/xlink">
    <!-- Generator: Sketch 48.2 (47327) - http://www.bohemiancoding.com/sketch -->
    <title>Group 3</title>
    <desc>Created with Sketch.</desc>
    <defs></defs>
    <g id="Home-Page" stroke="none" stroke-width="1" fill="none" fill-rule="evenodd" transform="translate(-520.000000, -153.000000)">
        <g id="Group-4" transform="translate(520.000000, 153.000000)" fill="#3C3C3C">
            <g id="Group-3">
                <g id="Group-2">
                    <g id="Group">
                        <path d="M9.18283871,12.7991032 L5.14993548,12.7991032 L5.14993548,16.6654258 L9.23767742,16.6654258 C10.8725161,16.6654258 11.771871,15.976329 11.771871,14.7471677 L11.771871,14.6868452 C11.771871,13.5485226 10.9544516,12.7991032 9.18283871,12.7991032 Z M11.0086452,6.83426452 C11.0086452,5.66471613 10.164129,5.03594194 8.61058065,5.03594194 L5.14993548,5.03594194 L5.14993548,8.72271613 L8.47445161,8.72271613 C10.0821935,8.72271613 11.0086452,8.12303871 11.0086452,6.8945871 L11.0086452,6.83426452 Z M0.000258064516,0.359877419 L9.78283871,0.359877419 C12.1802581,0.359877419 13.8699355,1.01845806 14.9873548,2.2178129 C15.7499355,3.08716774 16.2131613,4.19639355 16.2131613,5.63490968 L16.2131613,5.69523226 C16.2131613,8.12303871 14.9596129,9.56155484 13.2705806,10.3705871 C15.5867097,11.2108452 17.0583226,12.6493613 17.0583226,15.4965871 L17.0583226,15.5569097 C17.0583226,19.1535548 14.3873548,21.3414903 9.83703226,21.3414903 L0.000258064516,21.3414903 L0.000258064516,0.359877419 Z" id="Fill-2"></path>
                        <polygon id="Fill-3" points="25.4747097 0.359664516 40.816 0.359664516 40.816 5.2756 30.7063226 5.2756 30.7063226 8.48263226 39.8624516 8.48263226 39.8624516 13.0685677 30.7063226 13.0685677 30.7063226 16.3962452 40.952129 16.3962452 40.952129 21.3412774 25.4747097 21.3412774"></polygon>
                        <path d="M60.8959355,13.0389032 L58.7707742,7.10387097 L56.617871,13.0389032 L60.8959355,13.0389032 Z M56.2636774,0.210064516 L61.3591613,0.210064516 L69.4798065,21.3414194 L63.8120645,21.3414194 L62.4488387,17.5645161 L55.0643226,17.5645161 L53.7023871,21.3414194 L48.170129,21.3414194 L56.2636774,0.210064516 Z" id="Fill-4"></path>
                        <polygon id="Fill-5" points="77.3236129 0.359664516 82.255871 0.359664516 90.1036129 11.4505032 90.1036129 0.359664516 95.3352258 0.359664516 95.3352258 21.3412774 90.7300645 21.3412774 82.5552258 9.83172903 82.5552258 21.3412774 77.3236129 21.3412774"></polygon>
                        <path d="M103.261097,18.2243032 L106.204323,14.3579806 C108.112065,16.0065613 110.183032,16.8759161 112.389484,16.8759161 C113.834,16.8759161 114.596581,16.3358516 114.596581,15.4366903 L114.596581,15.3763677 C114.596581,14.4779161 113.970129,14.0279806 111.354,13.3381742 C107.294,12.3197871 104.160452,11.0601097 104.160452,6.77365806 L104.160452,6.71404516 C104.160452,2.81791613 106.966903,-0.000212903226 111.544968,-0.000212903226 C114.787548,-0.000212903226 117.321742,0.959270968 119.39271,2.7874 L116.749484,6.89430323 C115.005613,5.5154 113.098516,4.82559355 111.408839,4.82559355 C110.128194,4.82559355 109.501097,5.39546452 109.501097,6.17469032 L109.501097,6.23430323 C109.501097,7.1937871 110.15529,7.61391613 112.825613,8.27320645 C117.185613,9.32210968 119.910774,10.8805613 119.910774,14.8079161 L119.910774,14.867529 C119.910774,19.1539806 116.831419,21.7010129 112.199161,21.7010129 C108.819806,21.7010129 105.632065,20.5321742 103.261097,18.2243032" id="Fill-6"></path>
                        <polygon id="Fill-7" points="132.578774 5.45564516 126.883935 5.45564516 126.883935 0.359451613 143.587161 0.359451613 143.587161 5.45564516 137.865226 5.45564516 137.865226 21.3417742 132.578774 21.3417742"></polygon>
                        <path d="M160.669742,13.0389032 L158.544581,7.10387097 L156.391677,13.0389032 L160.669742,13.0389032 Z M156.037484,0.210064516 L161.132968,0.210064516 L169.253613,21.3414194 L163.585871,21.3414194 L162.222645,17.5645161 L154.838774,17.5645161 L153.476194,21.3414194 L147.943935,21.3414194 L156.037484,0.210064516 Z" id="Fill-8"></path>
                        <polygon id="Fill-9" points="177.098065 0.359664516 182.383871 0.359664516 182.383871 16.2465032 191.621935 16.2465032 191.621935 21.3412774 177.098065 21.3412774"></polygon>
                        <polygon id="Fill-10" points="199.902323 0.359664516 205.188774 0.359664516 205.188774 8.87224516 211.782968 0.359664516 218.022968 0.359664516 210.802323 9.3519871 218.268774 21.3412774 211.946839 21.3412774 207.122968 13.5483097 205.188774 15.8859871 205.188774 21.3412774 199.902323 21.3412774"></polygon>
                        <polygon id="Fill-11" points="222.99329 1.25577419 222.17329 1.25577419 222.17329 0.654677419 224.404903 0.654677419 224.404903 1.25577419 223.586194 1.25577419 223.586194 3.61758065 222.99329 3.61758065"></polygon>
                        <polygon id="Fill-12" points="225.704387 0.654535484 226.343097 0.654535484 227.051484 1.90711613 227.759871 0.654535484 228.397935 0.654535484 228.397935 3.61743871 227.809548 3.61743871 227.809548 1.68356774 227.051484 2.9482129 227.036 2.9482129 226.285032 1.69563226 226.285032 3.61743871 225.704387 3.61743871"></polygon>
                    </g>
                </g>
            </g>
        </g>
    </g>
</svg>