<?xml version="1.0" encoding="UTF-8"?>
<svg width="22px" height="22px" viewBox="0 0 22 22" version="1.1" xmlns="http://www.w3.org/2000/svg" xmlns:xlink="http://www.w3.org/1999/xlink">
    <!-- Generator: Sketch 48.2 (47327) - http://www.bohemiancoding.com/sketch -->
    <title>ios-search-strong</title>
    <desc>Created with Sketch.</desc>
    <defs></defs>
    <g id="Home-Page" stroke="none" stroke-width="1" fill="none" fill-rule="evenodd" transform="translate(-907.000000, -328.000000)">
        <g id="ios-search-strong" transform="translate(907.000000, 328.000000)" fill="#5A5A5A" fill-rule="nonzero">
            <path d="M16.0703125,13.40625 C16.9296875,12.0541667 17.4338542,10.45 17.4338542,8.72552083 C17.4338542,3.90729167 13.5322917,0 8.71979167,0 C3.9015625,0 0,3.90729167 0,8.72552083 C0,13.54375 3.9015625,17.4510417 8.7140625,17.4510417 C10.4614583,17.4510417 12.0885417,16.9354167 13.4520833,16.053125 L13.8473958,15.778125 L20.0692708,22 L22,20.0348958 L15.7838542,13.8130208 L16.0703125,13.40625 Z M13.6010417,3.85 C14.9015625,5.15052083 15.6177083,6.88072917 15.6177083,8.71979167 C15.6177083,10.5588542 14.9015625,12.2890625 13.6010417,13.5895833 C12.3005208,14.8901042 10.5703125,15.60625 8.73125,15.60625 C6.8921875,15.60625 5.16197917,14.8901042 3.86145833,13.5895833 C2.5609375,12.2890625 1.84479167,10.5588542 1.84479167,8.71979167 C1.84479167,6.88072917 2.5609375,5.15052083 3.86145833,3.85 C5.16197917,2.54947917 6.8921875,1.83333333 8.73125,1.83333333 C10.5703125,1.83333333 12.3005208,2.54947917 13.6010417,3.85 Z" id="Shape"></path>
        </g>
    </g>
</svg>